<svg width="59" height="60" fill="none" xmlns="http://www.w3.org/2000/svg"><rect width="25" height="25" rx="5" transform="matrix(0 1 1 0 17 17.184)" fill="url(#a)"/><g filter="url(#b)"><rect width="19" height="19" rx="5" transform="matrix(0 1 1 0 20 20.184)" fill="#21CC14"/></g><rect x="17.5" y="39.684" width="24" height="24" rx="4.5" transform="rotate(-90 17.5 39.684)" fill="url(#c)" stroke="#21CC14"/><g filter="url(#d)"><path fill-rule="evenodd" clip-rule="evenodd" d="M31 21.184h-3v5h-5v3h5v5h3v-5h5v-3h-5v-5Z" fill="url(#e)"/></g><defs><linearGradient id="a" x1="2.273" y1="12.5" x2="25" y2="12.5" gradientUnits="userSpaceOnUse"><stop stop-color="#30C325"/><stop offset="1" stop-color="#2C812A"/></linearGradient><linearGradient id="c" x1="19.273" y1="52.684" x2="42" y2="52.684" gradientUnits="userSpaceOnUse"><stop stop-color="#30C325"/><stop offset="1" stop-color="#2C812A"/></linearGradient><linearGradient id="e" x1="29.5" y1="21.184" x2="29.5" y2="34.184" gradientUnits="userSpaceOnUse"><stop stop-color="#B1FFAF"/><stop offset="1" stop-color="#fff"/></linearGradient><filter id="b" x="0" y=".184" width="59" height="59" filterUnits="userSpaceOnUse" color-interpolation-filters="sRGB"><feFlood flood-opacity="0" result="BackgroundImageFix"/><feBlend in="SourceGraphic" in2="BackgroundImageFix" result="shape"/><feGaussianBlur stdDeviation="10" result="effect1_foregroundBlur"/></filter><filter id="d" x="21" y="20.184" width="17" height="17" filterUnits="userSpaceOnUse" color-interpolation-filters="sRGB"><feFlood flood-opacity="0" result="BackgroundImageFix"/><feColorMatrix in="SourceAlpha" values="0 0 0 0 0 0 0 0 0 0 0 0 0 0 0 0 0 0 127 0" result="hardAlpha"/><feOffset dy="1"/><feGaussianBlur stdDeviation="1"/><feColorMatrix values="0 0 0 0 0 0 0 0 0 0 0 0 0 0 0 0 0 0 0.3 0"/><feBlend in2="BackgroundImageFix" result="effect1_dropShadow"/><feBlend in="SourceGraphic" in2="effect1_dropShadow" result="shape"/></filter></defs></svg>